HIERARCHY
ROOT Hips
{
	OFFSET 0.0000 0.0000 0.0000
	CHANNELS 6 Xposition Yposition Zposition Zrotation Xrotation Yrotation
	JOINT Ab
	{
		OFFSET -0.0000 8.1305 -0.0000
		CHANNELS 3 Zrotation Xrotation Yrotation
		JOINT Chest
		{
			OFFSET -0.0000 26.2902 -0.0000
			CHANNELS 3 Zrotation Xrotation Yrotation
			JOINT Neck
			{
				OFFSET -0.0000 26.2902 0.0000
				CHANNELS 3 Zrotation Xrotation Yrotation
				JOINT Head
				{
					OFFSET -0.0000 10.8167 0.0000
					CHANNELS 3 Zrotation Xrotation Yrotation
					End Site
					{
						OFFSET -0.0000 16.7167 0.0000
					}
				}
			}
			JOINT LeftCollar
			{
				OFFSET -0.0000 26.2902 0.0000
				CHANNELS 3 Zrotation Xrotation Yrotation
				JOINT LeftShoulder
				{
					OFFSET 19.6667 -0.0000 0.0000
					CHANNELS 3 Zrotation Xrotation Yrotation
					JOINT LeftElbow
					{
						OFFSET 27.2190 0.0000 0.0000
						CHANNELS 3 Zrotation Xrotation Yrotation
						JOINT LeftWrist
						{
							OFFSET 30.7431 0.0000 0.0000
							CHANNELS 3 Zrotation Xrotation Yrotation
							End Site
							{
								OFFSET 0.0000 -14.7500 0.0000
							}
						}
					}
				}
			}
			JOINT RightCollar
			{
				OFFSET -0.0000 26.2902 0.0000
				CHANNELS 3 Zrotation Xrotation Yrotation
				JOINT RightShoulder
				{
					OFFSET -19.6667 0.0000 0.0000
					CHANNELS 3 Zrotation Xrotation Yrotation
					JOINT RightElbow
					{
						OFFSET -27.2190 0.0000 0.0000
						CHANNELS 3 Zrotation Xrotation Yrotation
						JOINT RightWrist
						{
							OFFSET -30.7431 0.0000 0.0000
							CHANNELS 3 Zrotation Xrotation Yrotation
							End Site
							{
								OFFSET -0.0000 -14.7500 0.0000
							}
						}
					}
				}
			}
		}
	}
	JOINT LeftHip
	{
		OFFSET 11.8000 0.0000 0.0000
		CHANNELS 3 Zrotation Xrotation Yrotation
		JOINT LeftKnee
		{
			OFFSET -0.0000 -39.7832 0.0000
			CHANNELS 3 Zrotation Xrotation Yrotation
			JOINT LeftAnkle
			{
				OFFSET -0.0000 -41.7317 0.0000
				CHANNELS 3 Zrotation Xrotation Yrotation
				End Site
				{
					OFFSET -0.0000 -4.9167 16.7167
				}
			}
		}
	}
	JOINT RightHip
	{
		OFFSET -11.8000 0.0000 0.0000
		CHANNELS 3 Zrotation Xrotation Yrotation
		JOINT RightKnee
		{
			OFFSET -0.0000 -39.7832 0.0000
			CHANNELS 3 Zrotation Xrotation Yrotation
			JOINT RightAnkle
			{
				OFFSET -0.0000 -41.7317 0.0000
				CHANNELS 3 Zrotation Xrotation Yrotation
				End Site
				{
					OFFSET -0.0000 -4.9167 16.7167
				}
			}
		}
	}
}
MOTION
Frames: 8
Frame Time: 0.010000
-2.9182 86.3456 81.7051 358.3728 351.5066 174.6463 358.6510 347.5143 3.5505 1.4943 11.4570 3.5474 353.0739 347.6508 359.4525 0.8652 6.4160 0.1587 337.2683 357.0642 14.5838 316.0815 45.4384 358.6090 4.3874 358.0286 315.7862 86.4989 355.6198 339.0628 27.5675 356.1990 344.7002 32.9034 52.0568 18.0438 334.2042 348.0575 49.4460 264.5559 352.8806 359.7013 354.1037 328.4608 1.4541 357.0171 19.7675 358.1198 359.2007 354.5092 22.3876 2.0128 18.5023 5.2780 5.8483 14.3707 16.4149 356.2162 332.1845 326.5994 
-2.9012 86.2936 80.4096 357.8331 351.4734 174.6309 357.9390 347.3937 3.4006 1.4096 11.4848 3.4862 353.2205 347.4307 359.4960 0.6869 6.4335 0.2066 337.1260 357.0145 14.6595 316.1584 45.6952 358.2263 5.1684 357.6051 315.6331 86.6973 355.5183 339.6762 27.6953 356.1959 344.6740 33.9448 51.9654 16.9645 334.6181 348.5900 47.9788 265.0136 352.6080 0.5242 353.4369 328.0377 0.4628 356.8030 21.8929 357.9219 359.7493 354.4537 23.7073 1.3951 18.3439 5.0899 5.7493 16.0918 16.9259 357.5185 332.2682 326.9343 
-2.8881 86.2895 79.1044 357.2761 351.4969 174.7170 357.1734 347.3465 3.2520 1.3714 11.5183 3.4272 353.3210 347.1621 359.5137 0.5286 6.5641 0.2341 336.9828 356.9811 14.7069 316.4382 46.0050 357.5849 5.7939 357.3621 315.5149 87.1455 355.4749 340.2886 27.7703 356.1804 344.6093 35.1340 51.8089 15.7336 334.9657 349.0948 46.5362 265.2998 352.6393 0.8241 352.7130 327.7806 358.9496 356.2973 23.7732 358.8400 0.2432 354.2423 24.2487 0.7741 18.1476 5.1696 5.7760 17.8678 16.6603 359.0439 332.6365 327.7873 
-2.8818 86.3245 77.8295 356.7281 351.4806 174.8821 356.3821 347.3647 3.1249 1.4437 11.4168 3.3820 353.2386 347.0535 359.4610 0.4291 6.5970 0.2019 336.6825 356.9397 14.6602 317.1939 46.1658 356.7420 5.9639 357.3709 315.2418 87.2334 355.5541 340.5642 27.7638 356.1758 344.6012 36.7430 51.2433 13.9675 335.3820 349.6339 45.1798 266.0654 352.8144 1.6674 352.0260 327.6586 357.1477 355.5105 25.2296 0.5380 0.9738 354.3185 23.8048 0.1864 17.6816 5.2609 5.9078 19.9622 16.1107 0.6633 333.2169 328.7508 
-2.8751 86.3817 76.5552 356.2850 351.5307 175.0947 355.6286 347.5656 3.0775 1.5895 11.1470 3.4031 353.0531 347.2071 359.3689 0.5892 6.3599 0.1113 336.4078 356.9288 14.4319 317.6608 46.4393 356.1845 6.2621 357.2438 314.9634 87.1799 355.4789 340.7270 27.7127 356.1715 344.5727 38.5310 50.5647 11.9468 335.7674 350.1348 43.8151 266.8990 352.8549 2.3549 351.4618 327.7151 356.2347 355.0298 26.5790 1.2011 1.7287 354.2761 23.4327 359.6934 17.0590 4.9588 6.0295 22.4095 15.6375 2.6894 334.0873 330.0289 
-2.9004 86.4567 75.2666 355.9865 351.6037 175.4131 355.2510 347.6819 2.9581 1.4354 11.1327 3.3261 353.3513 346.8127 359.2817 0.1112 6.8086 0.0362 336.3530 356.9712 14.1770 318.0935 46.8294 355.3830 6.6932 357.0149 314.7338 87.1603 355.3576 340.7335 27.6843 356.1697 344.6351 40.5213 49.6292 9.6911 336.2200 350.6270 42.6252 267.3470 352.9598 3.1644 350.8418 327.9867 355.7433 355.0575 27.6880 1.1051 2.2319 354.1565 23.4670 359.2417 16.2699 4.1883 6.2082 25.2142 15.6462 4.3078 335.2632 330.8788 
-2.9274 86.5308 73.9719 355.8066 351.7641 175.6461 355.1277 347.8032 2.8977 1.1572 11.3456 3.2997 353.4034 346.3817 359.2513 359.8802 7.1291 0.0474 336.4968 357.0330 14.1563 318.3769 47.3347 354.3168 7.3491 356.6562 314.5047 86.9566 355.3626 340.6802 27.6077 356.1989 344.8503 42.2547 48.8298 7.7007 336.6178 351.0656 41.4110 267.8961 353.3232 3.9481 350.3779 328.5946 355.6600 355.1902 28.4510 0.5818 2.8848 353.9909 23.8571 358.7323 15.4325 3.4395 6.6260 28.0613 15.2560 5.7961 337.0432 331.8820 
-2.9487 86.5874 72.6892 355.7284 352.0252 175.7779 355.1369 348.1314 2.8873 0.8789 11.2727 3.3041 353.3348 346.3143 359.2747 359.8612 7.3993 0.0871 336.5768 357.0500 14.1517 318.7702 47.9877 353.3405 8.0128 356.3231 314.2184 87.1463 355.2871 341.1663 27.6156 356.2654 345.1334 43.7709 48.0770 5.6303 337.0862 351.5028 40.3657 268.5075 353.8686 4.6713 349.9895 329.4919 355.7946 355.6103 28.9661 359.6720 3.6045 353.7673 23.9315 358.2098 14.4977 2.5074 7.0274 31.1289 14.7183 7.3222 339.0695 333.0989 
